<?xml version="1.0" encoding="utf-8"?>
<!-- Generator: Adobe Illustrator 26.0.0, SVG Export Plug-In . SVG Version: 6.00 Build 0)  -->
<svg version="1.1" id="Capa_1" xmlns="http://www.w3.org/2000/svg" xmlns:xlink="http://www.w3.org/1999/xlink" x="0px" y="0px"
	 viewBox="0 0 1240 638" style="enable-background:new 0 0 1240 638;" xml:space="preserve">
<style type="text/css">
	.st0{fill:#CEDBEF;}
	.st1{fill:url(#Rectángulo_35467_00000179615060733225306450000004341357685696812470_);}
	.st2{fill:#FFFFFF;}
	.st3{fill:#0D4AAD;}
	.st4{fill:#7C8C9C;}
	.st5{fill:#00CBAE;}
</style>
<g id="Grupo_140178" transform="translate(-180 -1902)">
	<rect id="Rectángulo_35665" x="180" y="1902" class="st0" width="1240" height="638"/>
	
		<linearGradient id="Rectángulo_35467_00000045589686064872523020000013902529620753057424_" gradientUnits="userSpaceOnUse" x1="-157.9501" y1="2761.7756" x2="-157.0221" y2="2761.7708" gradientTransform="matrix(1.377728e-14 225 1240 -7.592811e-14 -3423799 37870)">
		<stop  offset="0" style="stop-color:#CEDBEF"/>
		<stop  offset="1" style="stop-color:#BED0ED"/>
	</linearGradient>
	
		<rect id="Rectángulo_35467" x="180" y="2315" style="fill:url(#Rectángulo_35467_00000045589686064872523020000013902529620753057424_);" width="1240" height="225"/>
	<g id="Grupo_137436" transform="translate(1.388 -15.109)">
		<path id="Sustracción_1" class="st2" d="M1251.2,2427.1V2412c10.5-12.2,19.9-25.2,28.2-39c8.3-13.9,15.4-28.5,21.2-43.6
			c11.9-31.3,18-64.5,17.9-98c0-33.5-6-66.7-17.9-98c-5.8-15.1-12.8-29.7-21.2-43.6c-8.3-13.8-17.7-26.8-28.2-39v-15.1
			c12,12.8,22.8,26.7,32.3,41.5c9.5,14.9,17.7,30.7,24.3,47.1c6.7,16.7,11.9,34,15.3,51.7c3.5,18.2,5.3,36.7,5.3,55.3
			c0,18.6-1.8,37.1-5.3,55.3c-3.5,17.7-8.6,35-15.3,51.7c-6.6,16.4-14.8,32.2-24.3,47.1C1274.1,2400.3,1263.2,2414.2,1251.2,2427.1
			L1251.2,2427.1z"/>
		<path id="Sustracción_9" class="st2" d="M346.8,2427.1V2412c-10.5-12.2-19.9-25.2-28.2-39c-8.3-13.9-15.4-28.5-21.2-43.6
			c-11.9-31.3-18-64.5-17.9-98c0-33.5,6-66.7,17.9-98c5.8-15.1,12.8-29.7,21.2-43.6c8.3-13.8,17.7-26.8,28.2-39v-15.1
			c-12,12.8-22.8,26.7-32.3,41.5c-9.5,14.9-17.7,30.7-24.3,47.1c-6.7,16.7-11.9,34-15.3,51.7c-3.5,18.2-5.3,36.7-5.3,55.3
			c0,18.6,1.8,37.1,5.3,55.3c3.5,17.7,8.6,35,15.3,51.7c6.6,16.4,14.8,32.2,24.3,47.1C324,2400.3,334.8,2414.2,346.8,2427.1z"/>
		<g id="Grupo_137427" transform="translate(361.656 2093.72)">
			<g id="Grupo_137426" transform="translate(0 0)">
				<g id="Grupo_137410" transform="translate(81.12 10.927)">
					<path id="Trazado_151852" class="st3" d="M97.1,19.5c-7.8,1.5,1.9,31.7-8.7,43s-14.1,33-27.7,32s-19.7,6.8-4.1,16.4
						s29.5-8.4,40.5,6.1S111,143,124.8,141s25.6-8.1,29.8-18.1s12.5-25.4,9.2-39.5s-14-27.9-23.3-38.5s-5.7-6.8-15.7-13.9
						S104.9,17.9,97.1,19.5z"/>
				</g>
				<g id="Grupo_137411">
					<path id="Trazado_151838" class="st4" d="M87.6,290.1h-3.2v-9.7c-1.4-28.9-13.9-40.9-21.3-45.6c-8.8-5.6-11.1-6.1-18-7.5
						c-1.9-0.4-4.3-0.9-7.2-1.6c-1.3-0.3-2.6-0.6-3.9-0.9c-5.6-1.3-11.3-2.6-16.6-5.1c-7.7-3.7-13-9.6-14.6-16.2
						c-1.7-6.8,1.2-13.9,3.7-20.2c0.4-0.9,0.7-1.8,1.1-2.7c0.8-2.2,0.6-4.6-0.7-6.6c-0.4-0.5-0.8-1-1.2-1.5
						c-0.7-0.8-1.3-1.6-1.8-2.5c-1.3-2.4-1.4-5.4-0.1-7.9c0.7-1.3,1.7-2.4,3-3.3c-0.9-0.7-1.6-1.5-2.1-2.5c-1.6-2.9-1.3-5.8,0.6-7.4
						c3.1-2.6,5.8-5.1,6.6-8.3c0.3-1,0.3-2.1,0-3.1c-3-2-6.4-4.4-8.8-7.6c-2.9-3.9-3.9-8.7-2.4-12.6c1.5-3.8,4.9-6.2,7.6-8.1
						c2.3-1.6,4.6-3.1,6.9-4.5c6.3-4,12.3-7.8,16.8-13.5c3.6-4.5,5.5-9.9,7.6-15.6c0.8-2.3,1.7-4.7,2.7-7
						C47.1,57.2,55,47.4,62.6,37.9c8.5-10.7,24.5-20.7,29.2-23.5c24.1-14.5,43.6-15,64.8-14.1c24.4,1,47.9,8.8,66.1,22
						c48.1,35.1,58.6,102.5,23.5,150.6c-4.7,6.4-10,12.2-16,17.4c-9.1,7.8-17.6,16.2-25.4,25.3c-15.8,18-19.4,45.5-8.7,67l-2.9,1.4
						c-11.2-22.6-7.5-51.6,9.2-70.5c7.9-9.2,16.5-17.7,25.7-25.6c43.4-38.1,47.7-104.1,9.6-147.5c-5-5.8-10.7-10.9-16.9-15.4
						C203.1,12,180.2,4.4,156.4,3.5c-25.1-1-41.7,0.8-63,13.7c-4.6,2.8-20.1,12.5-28.3,22.8c-7.5,9.3-15.2,19-19.9,30.1
						c-0.9,2.2-1.8,4.6-2.6,6.9c-2.1,5.7-4.2,11.6-8.1,16.5c-4.8,6.1-11.3,10.2-17.6,14.2c-2.2,1.4-4.6,2.9-6.8,4.4
						c-2.9,2-5.4,4-6.5,6.6c-1.3,3.3,0.2,7.1,2,9.5c2.2,2.9,5.4,5.1,8.5,7.2c0.3,0.2,0.5,0.5,0.7,0.9c0.6,1.7,0.6,3.6,0.2,5.3
						c-1.1,4.5-4.9,7.6-7.7,10c-0.8,0.7-0.5,2.3,0.2,3.4c0.7,1.3,2,2.2,3.5,2.4c0.9,0.1,1.5,0.9,1.4,1.8c-0.1,0.7-0.7,1.3-1.4,1.4
						c-1.9,0.4-3.5,1.5-4.5,3.1c-0.8,1.5-0.7,3.3,0.1,4.9c0.4,0.7,0.9,1.3,1.4,1.9c0.5,0.6,1,1.2,1.4,1.8c1.8,2.8,2.2,6.4,1,9.5
						c-0.3,0.9-0.7,1.8-1.1,2.7c-2.4,6.1-5,12.4-3.5,18.2c1.4,5.6,6.1,10.8,12.9,14c5,2.4,10.5,3.7,15.9,4.9c1.3,0.3,2.7,0.6,4,0.9
						c2.9,0.7,5.1,1.2,7.1,1.6c7.1,1.5,9.7,2.1,19,8c8.5,5.3,14.7,13.8,18.6,25.3c2.4,7.4,3.8,15.1,4.2,22.9c0,0,0,0.1,0,0.1
						L87.6,290.1z"/>
				</g>
				<g id="Grupo_137412" transform="translate(52.073 98.546)">
					<path id="Trazado_151839" class="st4" d="M26.5,20.7c-3.7,0-7.4-0.8-10.8-2.3c-7-3.3-12.5-9-15.6-16.1C-0.2,1.4,0.2,0.5,1,0.2
						c0.8-0.3,1.7,0,2.1,0.8C5.8,7.3,10.8,12.5,17,15.4c5.9,2.6,12.7,2.7,18.7,0.2c0.8-0.3,1.8,0,2.1,0.9c0.3,0.8,0,1.8-0.9,2.1
						C33.7,20,30.1,20.7,26.5,20.7z"/>
				</g>
				<g id="Grupo_137421" transform="translate(93.783 19.573)">
					<g id="Grupo_137416">
						<path id="Trazado_151842" class="st2" d="M143.8,82.2c-1.2-1.7-2.6-3.3-4.2-4.6c4.4-3.7,6.6-9.4,5.8-15.1
							c-1-6-4.6-11.2-9.9-14.2c-4.1-2.4-8.8-3.4-13.6-3.1c2.1-3.6,2.9-7.8,2.2-11.9c-0.9-5.1-3.5-9.8-7.3-13.4
							c-8.2-7.3-19.1-10.8-30-9.5c-5.5,0.8-10.6,3.5-14.3,7.6c-0.5-0.2-1-0.3-1.6-0.4c0-2.9-0.9-5.8-2.7-8.2c-2-2.6-4.6-4.7-7.6-6.2
							C56,0.8,50.7-0.3,45.5,0.1C40.3,0.6,35.4,3,32,7c-2.9,3.6-4.2,8.2-3.4,12.8c-4.3-2.5-9.4-3.1-14.2-1.9
							C9,19.4,4.6,23.4,2.8,28.7C1,34,2.2,39.9,5.8,44.2c0.2,0.3,0.5,0.6,0.8,0.9C2,48.6-0.5,54.3,0.1,60c0.9,6.3,5,11.6,10.8,14.1
							c0.2,0.1,0.4,0.2,0.6,0.2c2.6,1,5.5,1.1,8.1,0.2c-0.9,4.3,0.2,8.7,2.8,12.1c2.2,2.8,5.1,4.9,8.5,6.1c1.5,0.6,3.1,0.9,4.8,1.1
							c3.2,0.4,6.5-0.1,9.4-1.5c1.2-0.6,2.2-1.3,3.1-2.2c0.1,3.5,1.2,7,3.2,9.9c2.1,3,5,5.2,8.4,6.5c1.3,0.5,2.7,0.8,4.1,0.9
							c0.1,0.1,0.1,0.2,0.2,0.2c7.2,5.9,11.7,14.4,12.6,23.7l0,0.4c0,1.6,0.4,3.1,1.2,4.5c0.7,1,1.7,1.7,2.8,2.1
							c1.2,0.5,2.6,0.5,3.8,0.1c1.9-0.7,3.5-2.1,4.4-3.8c0.3-0.5,0.6-0.9,0.8-1.4c0.4-0.7,0.8-1.3,1.2-2c2.1,1.9,4.6,3.4,7.3,4.4
							c0.3,0.1,0.5,0.2,0.8,0.3c3.3,1.2,6.9,1.4,10.3,0.8c3.9-0.8,7.3-3.1,9.5-6.4c2.1-3.2,2.9-7.1,2.1-10.8c0.1,0,0.1,0,0.2,0
							c3.9-0.9,6.9-4.1,7.6-8c3.3,0.6,6.6,0,9.5-1.6c2.8-1.6,5-4,6.5-6.8C148.4,96.3,147.9,88.3,143.8,82.2z M86.9,133.2
							c-0.7,1.3-1.8,2.3-3.1,2.8c-1.4,0.4-2.8-0.1-3.7-1.2c-0.5-1-0.8-2.2-0.8-3.3l0-0.4c-0.9-9.1-5.1-17.6-11.8-23.9
							c2.7-0.4,5.2-1.5,7.3-3.3c0,1.3,0.2,2.5,0.6,3.8c1.3,3.8,4,7,7.5,9.1c0.9,0.6,1.9,1,3,1.4c0.3,0.1,0.6,0.2,0.9,0.3
							c-0.8,3.8,0.2,7.8,2.6,10.8c-0.6,0.8-1.2,1.7-1.7,2.6C87.4,132.4,87.2,132.8,86.9,133.2L86.9,133.2z M142.7,101.7
							c-1.3,2.4-3.2,4.5-5.6,5.9c-2.4,1.4-5.2,1.8-7.9,1.3c-0.1,0-0.1,0-0.2,0c-0.2-3-1.5-5.8-3.6-7.9c2.2-2.4,3.1-5.7,2.5-8.8
							c-0.2-0.7-0.8-1.1-1.5-1c-0.6,0.1-1.1,0.7-1,1.4c0,0,0,0,0,0.1c0.7,3.2-0.8,6.4-3.5,8.1c-2.9,1.6-6.5,1.3-9.1-0.7
							c-0.5-0.4-1.3-0.4-1.8,0.2c-0.4,0.5-0.3,1.3,0.2,1.7c0,0,0,0,0,0c0.9,0.7,1.8,1.2,2.9,1.6c3,1.1,6.3,0.9,9.1-0.7
							c0.1-0.1,0.2-0.1,0.3-0.2c2.2,2.1,3.3,5.2,2.9,8.2c-0.6,3-2.8,5.4-5.8,6.1c-3,0.7-6.1-0.6-7.8-3.2c-0.4-0.6-1.1-0.8-1.7-0.5
							c-0.6,0.3-0.8,1-0.5,1.6c0,0,0,0,0,0.1c1.2,1.9,2.9,3.3,5,4c0.9,0.3,1.9,0.5,2.9,0.6c0.7,3.2,0,6.5-1.8,9.3
							c-1.9,2.8-4.7,4.7-7.9,5.4c-3,0.6-6.1,0.3-9-0.7c-3.3-1-6.2-2.9-8.5-5.6c-2-2.5-2.8-5.7-2.2-8.9c2,0.3,4,0.1,5.9-0.6
							c4.4-1.6,7.1-6.1,6-10.3c-0.2-0.7-0.8-1.1-1.5-0.9c-0.6,0.1-1.1,0.7-0.9,1.4c0,0,0,0,0,0.1c0.7,2.9-1.3,6.3-4.5,7.5
							c-3,1.1-6.7,0.6-10-1.4c-3-1.7-5.2-4.4-6.3-7.7c-1-3.1-0.5-6.5,1.3-9.2c0.4-0.5,0.3-1.3-0.3-1.7c0,0,0,0,0,0
							c-0.6-0.4-1.3-0.3-1.8,0.2c-0.5,0.7-1,1.5-1.3,2.3c0,0.1-0.1,0.1-0.1,0.2c-2.1,3.9-6.3,6.3-10.7,6.1
							c-4.6-0.2-8.8-2.6-11.4-6.3c-2.5-3.8-3.4-8.4-2.4-12.8c0-0.2,0-0.4,0-0.5c0-0.1,0.1-0.1,0.1-0.2c0.2-0.7-0.3-1.3-0.9-1.5
							c-0.7-0.2-1.3,0.2-1.5,0.8c0,0,0,0,0,0c-0.7,2.5-2.5,4.6-4.9,5.7c-2.5,1.2-5.3,1.6-8,1.2c-4.5-0.4-8.6-2.6-11.5-6.2
							c-2.7-3.4-3.4-8-1.8-12c0,0,0-0.1,0-0.1c0.8,0.5,1.7,1,2.6,1.3l0,0c2.9,1,6,1.1,9,0.5c0.6-0.1,1.1-0.7,1-1.4c0,0,0,0,0-0.1
							c-0.2-0.7-0.8-1.1-1.5-1c-2.5,0.6-5.2,0.4-7.6-0.4c-2.3-0.8-4.3-2.5-5.2-4.8c-0.9-2.1-0.3-4.6,1.4-6.2
							c0.5-0.4,0.6-1.2,0.1-1.7c0,0,0,0,0,0c-0.5-0.5-1.2-0.6-1.8-0.1c-2.5,2.2-3.3,5.7-2,8.8c0.5,1.2,1.1,2.2,2,3.1
							c-0.3,0-0.5,0.1-0.8,0.3c-2.2,1.8-5.7,1.3-8,0.3c-5-2.1-8.5-6.7-9.2-12c-0.5-5.1,1.8-10.1,6-13c1.4,1,2.9,1.8,4.4,2.4
							c2.6,1,5.4,1.2,8.1,0.8c0.7-0.1,1.1-0.7,1-1.3c0,0,0,0,0-0.1c-0.1-0.7-0.8-1.1-1.5-1c-4.8,0.6-9.7-1.2-12.9-4.9
							C4.7,39,3.7,34,5.2,29.5c1.6-4.5,5.3-8,10-9.2C20,19,25.1,20,29,23c0.5,0.4,1.3,0.3,1.8-0.2c0.1-0.2,0.2-0.4,0.3-0.6
							c0.4-0.3,0.5-0.8,0.4-1.2c-1.3-4.3-0.3-9,2.6-12.4c3-3.5,7.3-5.6,11.8-6c4.7-0.4,9.5,0.6,13.6,2.8c2.6,1.3,4.9,3.1,6.7,5.4
							c1.5,1.9,2.2,4.2,2.2,6.6c-0.8,0-1.6,0.1-2.4,0.3c-3.6,0.9-6.6,3.5-7.9,6.9c-0.2,0.6,0.1,1.4,0.8,1.6c0,0,0,0,0,0h0
							c0.6,0.2,1.4-0.1,1.6-0.7c1.1-2.7,3.4-4.8,6.2-5.4c2.9-0.6,6,0.1,8.3,2c2.2,1.9,3.4,4.8,3.2,7.7c-0.1,0.7,0.4,1.3,1.1,1.4
							c0.7,0.1,1.3-0.4,1.4-1c0,0,0,0,0,0c0.4-4.5-1.8-8.8-5.7-11c3.3-3.4,7.7-5.6,12.3-6.2c10.1-1.2,20.2,2,27.8,8.8
							c3.4,3.2,5.7,7.4,6.6,12c0.7,4.3-0.4,8.7-3.1,12.1l-0.1,0c-3.8-3.7-9.5-4.8-14.5-2.8c-0.6,0.3-0.9,0.9-0.6,1.5c0,0,0,0,0,0.1
							c0.3,0.6,1,0.9,1.7,0.6c4.1-1.6,8.8-0.6,11.9,2.5c2.9,3.2,3.5,7.9,1.4,11.7c-0.3,0.6-0.1,1.3,0.4,1.7c0,0,0,0,0,0
							c0.1,0,0.1,0.1,0.2,0.1c0.6,0.2,1.2,0,1.5-0.5c2.3-4,2.1-8.9-0.3-12.7c4.8-0.8,9.8,0.1,14.1,2.5c4.6,2.6,7.8,7.2,8.6,12.4
							c0.7,5.1-1.4,10.2-5.4,13.3c-3.8-2.4-8.3-3.7-12.9-3.5c-0.7,0-1.2,0.6-1.2,1.2c0,0,0,0,0,0c0.1,0.7,0.7,1.2,1.4,1.2
							c6.7-0.2,13.1,2.9,16.9,8.4C145.3,88.9,145.7,95.9,142.7,101.7L142.7,101.7z"/>
					</g>
					<g id="Grupo_137417" transform="translate(44.203 36.897)">
						<path id="Trazado_151843" class="st2" d="M17.5,7.7c1.2,2.9,0.6,6.2-1.6,8.5c-0.5,0.5-0.4,1.2,0,1.7c0,0,0,0,0,0
							c0.1,0.1,0.3,0.2,0.4,0.3c0.5,0.2,1,0.1,1.3-0.3c2.8-3,3.6-7.3,2.1-11.1C18.2,3,14.5,0.4,10.3,0C6.2-0.3,2.2,1.8,0.1,5.4
							C-0.2,6,0.1,6.7,0.7,7c0,0,0,0,0,0C1.3,7.4,2,7.2,2.4,6.6C4,3.8,7,2.3,10.2,2.5C13.4,2.7,16.2,4.7,17.5,7.7z"/>
					</g>
					<g id="Grupo_137418" transform="translate(94.147 72.977)">
						<path id="Trazado_151844" class="st2" d="M8.2,0C7.5-0.1,6.9,0.3,6.7,0.9c0,0,0,0,0,0C6.6,1.6,7,2.3,7.7,2.4
							c4.2,1,7.6,4.1,9,8.2c1.2,4,0,8.3-3.1,11.2c-3.3,2.7-7.8,3.3-11.7,1.5c-0.6-0.3-1.4-0.1-1.7,0.5c-0.3,0.6,0,1.3,0.6,1.6
							c0,0,0,0,0,0c0.4,0.2,0.8,0.4,1.2,0.5c4.5,1.6,9.6,0.7,13.3-2.3c3.8-3.4,5.3-8.7,3.8-13.6C17.4,5,13.3,1.2,8.2,0z"/>
					</g>
					<g id="Grupo_137419" transform="translate(40.725 55.255)">
						<path id="Trazado_151845" class="st2" d="M53.3,30.3c-3,1.3-6.5,1.2-9.5-0.3c-2.9-1.5-5-4.3-5.6-7.6c-0.4-2.8,0.3-5.6,2-7.8
							c1.3,1.2,2.8,2.1,4.4,2.7c0.9,0.3,1.9,0.6,2.9,0.7c3.6,0.4,8-1.2,9.2-4.9c0.2-0.7-0.2-1.4-0.9-1.6c-0.6-0.2-1.3,0.2-1.5,0.8
							c-0.8,2.4-4,3.6-6.6,3.3c-3.2-0.4-6-2.2-7.7-5c-1.5-2.7-1.7-6-0.3-8.8c0.3-0.6,0-1.3-0.6-1.6c0,0,0,0,0,0
							c-0.6-0.3-1.4-0.1-1.7,0.5c-1.7,3.5-1.6,7.7,0.4,11.1c0.2,0.3,0.4,0.7,0.6,1c-1.9,2.3-3,5.1-3,8.1c-3.3,2.6-8,2.9-11.6,0.6
							c-3.6-2.4-5.2-7-3.7-11.1c0.2-0.7-0.1-1.4-0.8-1.6c-0.6-0.2-1.3,0.1-1.6,0.7c-0.6,1.6-0.8,3.3-0.7,4.9
							c-1.5,1.7-3.5,2.8-5.8,3.2c-2.3,0.4-4.6,0-6.6-1.1c-1.1-0.5-1.9-1.4-2.4-2.5c-0.2-0.7-0.9-1-1.5-0.9c-0.6,0.1-1,0.8-0.9,1.4
							c0,0,0,0,0,0.1c0.6,1.8,1.9,3.2,3.6,4c2.5,1.4,5.5,1.8,8.3,1.4c2.2-0.4,4.2-1.3,5.9-2.7c0.9,2.6,2.5,4.7,4.8,6.2
							c0.7,0.5,1.6,0.9,2.4,1.2c3.6,1.3,7.6,0.9,10.9-1c0.9,3.6,3.4,6.7,6.7,8.5c0.5,0.3,1.1,0.5,1.6,0.7c3.3,1.2,6.9,1.1,10.1-0.3
							c0.6-0.3,0.9-1,0.6-1.6c0,0,0,0,0-0.1C54.7,30.3,53.9,30,53.3,30.3z"/>
					</g>
					<g id="Grupo_137420" transform="translate(76.602 39.246)">
						<path id="Trazado_151846" class="st2" d="M0.3,4C0.7,4.6,1.5,4.7,2,4.3c4.2-2.7,9.7-2.4,13.6,0.8c3.6,3.3,4.5,8.7,2.1,13.1
							c-0.3,0.6-0.2,1.3,0.4,1.7c0,0,0,0,0,0c0.1,0,0.2,0.1,0.2,0.1c0.6,0.2,1.2,0,1.5-0.5c3.1-5.3,2-12-2.6-16.1
							c-4.7-4.1-11.6-4.5-16.8-1C0,2.7-0.2,3.5,0.3,4C0.2,4,0.2,4,0.3,4z"/>
					</g>
				</g>
				<g id="Grupo_137422" transform="translate(28.293 18.629)">
					<path id="Trazado_151847" class="st4" d="M1.9,56.4L0,55.8c0.2-0.8,0.5-1.6,0.8-2.3l1.9,0.7C2.4,54.9,2.2,55.7,1.9,56.4z
						 M3.5,51.9l-1.9-0.7c0.3-0.8,0.6-1.5,0.9-2.3l1.9,0.7C4.1,50.4,3.8,51.1,3.5,51.9L3.5,51.9z M5.3,47.4l-1.9-0.8
						c0.3-0.7,0.6-1.5,1-2.2l1.8,0.8C5.9,45.9,5.6,46.7,5.3,47.4z M7.2,43l-1.8-0.9c0.4-0.7,0.7-1.5,1.1-2.2l1.8,0.9
						C7.9,41.6,7.6,42.3,7.2,43z M9.4,38.8l-1.8-1c0.4-0.7,0.8-1.4,1.2-2.1l1.8,1C10.2,37.3,9.8,38.1,9.4,38.8L9.4,38.8z M11.8,34.6
						l-1.7-1c0.4-0.7,0.8-1.4,1.3-2.1l1.7,1.1C12.6,33.2,12.2,33.9,11.8,34.6L11.8,34.6z M14.4,30.5l-1.7-1.1c0.4-0.7,0.9-1.4,1.4-2
						l1.7,1.2C15.3,29.2,14.8,29.8,14.4,30.5L14.4,30.5z M17.1,26.6l-1.6-1.2c0.5-0.7,1-1.3,1.5-2l1.6,1.2
						C18.1,25.3,17.6,25.9,17.1,26.6z M20,22.8l-1.6-1.3c0.5-0.6,1-1.3,1.6-1.9l1.5,1.3C21.1,21.5,20.5,22.1,20,22.8L20,22.8z
						 M23.1,19.1l-1.5-1.3c0.5-0.6,1.1-1.2,1.6-1.8l1.5,1.4C24.2,17.9,23.7,18.5,23.1,19.1L23.1,19.1z M26.4,15.6l-1.5-1.4
						c0.6-0.6,1.1-1.2,1.7-1.7l1.4,1.4C27.5,14.4,26.9,15,26.4,15.6L26.4,15.6z M29.8,12.2l-1.4-1.5c0.6-0.6,1.2-1.1,1.8-1.7
						l1.4,1.5C31,11.1,30.4,11.6,29.8,12.2L29.8,12.2z M33.4,9l-1.3-1.5c0.6-0.5,1.3-1.1,1.9-1.6l1.3,1.6C34.6,7.9,34,8.4,33.4,9
						L33.4,9z M37.1,5.9l-1.2-1.6c0.6-0.5,1.3-1,1.9-1.5L39,4.4C38.4,4.9,37.7,5.4,37.1,5.9z M41,3l-1.2-1.6c0.7-0.5,1.3-0.9,2-1.4
						l1.1,1.7C42.3,2.1,41.6,2.6,41,3L41,3z"/>
				</g>
				<g id="Grupo_137423" transform="translate(178.012 170.602)">
					<path id="Trazado_151848" class="st4" d="M0.7,89.1c-0.1-0.8-0.3-1.6-0.4-2.5l2-0.3c0.1,0.8,0.2,1.6,0.4,2.3L0.7,89.1z
						 M0.1,84.2C0.1,83.4,0,82.5,0,81.7l2,0c0,0.8,0,1.6,0.1,2.4L0.1,84.2z M2,79.3l-2-0.1c0-0.8,0.1-1.6,0.1-2.5l2,0.2
						C2.1,77.7,2.1,78.5,2,79.3L2,79.3z M2.4,74.6l-2-0.3c0.1-0.8,0.2-1.6,0.4-2.4l2,0.3C2.6,73,2.5,73.8,2.4,74.6L2.4,74.6z
						 M3.2,69.9l-2-0.4c0.2-0.8,0.4-1.6,0.6-2.4l2,0.5C3.6,68.3,3.4,69.1,3.2,69.9L3.2,69.9z M4.5,65.3l-1.9-0.6
						c0.2-0.8,0.5-1.6,0.8-2.3L5.2,63C4.9,63.7,4.7,64.5,4.5,65.3L4.5,65.3z M6,60.8L4.1,60c0.3-0.8,0.6-1.5,0.9-2.3l1.9,0.8
						C6.6,59.3,6.3,60,6,60.8L6,60.8z M7.9,56.4l-1.8-0.9c0.4-0.7,0.7-1.5,1.1-2.2L9,54.2C8.6,54.9,8.3,55.7,7.9,56.4L7.9,56.4z
						 M10.2,52.1l-1.8-1c0.4-0.7,0.8-1.4,1.2-2.1l1.7,1.1C11,50.8,10.5,51.4,10.2,52.1L10.2,52.1z M12.6,48l-1.7-1.1
						c0.4-0.7,0.9-1.4,1.4-2L14,46C13.5,46.7,13.1,47.4,12.6,48L12.6,48z M15.4,44.1l-1.6-1.2c0.5-0.6,1-1.3,1.5-2l1.6,1.2
						C16.3,42.8,15.8,43.5,15.4,44.1L15.4,44.1z M18.3,40.3L16.7,39c0.5-0.6,1-1.3,1.6-1.9l1.5,1.3C19.3,39,18.8,39.6,18.3,40.3
						L18.3,40.3z M21.4,36.6l-1.5-1.3c0.5-0.6,1.1-1.2,1.6-1.8l1.5,1.4C22.4,35.4,21.9,36,21.4,36.6L21.4,36.6z M24.6,33l-1.5-1.4
						c0.6-0.6,1.1-1.2,1.7-1.8l1.5,1.4C25.7,31.8,25.2,32.4,24.6,33L24.6,33z M28,29.5l-1.4-1.4c0.6-0.6,1.1-1.1,1.7-1.7l1.4,1.4
						C29.1,28.4,28.5,29,28,29.5L28,29.5z M31.4,26.2L30,24.7l0.4-0.4c0.4-0.4,0.9-0.8,1.3-1.3l1.4,1.5c-0.4,0.4-0.9,0.8-1.3,1.3
						L31.4,26.2z M34.9,22.8l-1.4-1.5c0.6-0.6,1.2-1.1,1.8-1.6l1.4,1.5C36.1,21.7,35.5,22.3,34.9,22.8L34.9,22.8z M38.5,19.6
						l-1.4-1.5c0.6-0.5,1.2-1.1,1.8-1.6l1.4,1.5C39.7,18.5,39.1,19,38.5,19.6L38.5,19.6z M42.1,16.3l-1.4-1.5l1.8-1.6l1.4,1.5
						L42.1,16.3z M45.7,13.1l-1.4-1.5c0.6-0.5,1.2-1.1,1.8-1.6l1.4,1.5C46.9,12,46.3,12.5,45.7,13.1L45.7,13.1z M49.3,9.8l-1.4-1.5
						c0.6-0.5,1.2-1.1,1.8-1.6l1.4,1.5C50.5,8.7,49.9,9.3,49.3,9.8L49.3,9.8z M52.9,6.5L51.5,5c0.6-0.6,1.2-1.1,1.8-1.7l1.4,1.5
						C54.1,5.4,53.5,6,52.9,6.5L52.9,6.5z M56.4,3.1L55,1.7c0.6-0.6,1.1-1.1,1.7-1.7l1.4,1.4C57.5,2,57,2.6,56.4,3.1L56.4,3.1z"/>
				</g>
				<g id="Grupo_137424" transform="translate(40.446 231.831)">
					<path id="Trazado_151849" class="st4" d="M35.3,38.7c-0.2-0.8-0.4-1.6-0.6-2.3l2-0.5c0.2,0.8,0.4,1.6,0.6,2.4L35.3,38.7z
						 M34.1,34c-0.2-0.8-0.4-1.6-0.7-2.3l1.9-0.6c0.2,0.8,0.4,1.5,0.7,2.4L34.1,34z M32.7,29.4c-0.3-0.8-0.5-1.5-0.8-2.3l1.9-0.7
						c0.3,0.7,0.6,1.5,0.8,2.3L32.7,29.4z M31.1,25c-0.3-0.7-0.6-1.5-1-2.2l1.8-0.9c0.4,0.7,0.7,1.5,1,2.3L31.1,25z M29,20.7
						c-0.4-0.7-0.8-1.4-1.2-2l1.7-1.1c0.4,0.7,0.9,1.4,1.3,2.1L29,20.7z M26.4,16.8c-0.5-0.6-1-1.2-1.5-1.8l1.5-1.3
						c0.5,0.6,1.1,1.3,1.6,1.9L26.4,16.8z M23.4,13.2c-0.6-0.5-1.1-1.1-1.7-1.6l1.3-1.6c0.7,0.5,1.3,1.1,1.9,1.7L23.4,13.2z
						 M19.7,10.3c-0.6-0.4-1.3-0.9-2-1.3l1-1.7c0.7,0.4,1.4,0.9,2.1,1.4L19.7,10.3z M15.7,7.8c-0.7-0.4-1.4-0.7-2.1-1.1l0.8-1.8
						c0.8,0.4,1.5,0.7,2.2,1.1L15.7,7.8z M11.4,5.8c-0.7-0.3-1.5-0.6-2.2-0.9L9.9,3c0.8,0.3,1.6,0.6,2.3,0.9L11.4,5.8z M6.9,4.1
						C6.1,3.9,5.4,3.6,4.6,3.4l0.6-1.9C6,1.7,6.8,1.9,7.6,2.2L6.9,4.1z M2.3,2.6C1.5,2.4,0.8,2.2,0,1.9L0.6,0
						c0.8,0.2,1.5,0.5,2.3,0.7L2.3,2.6z"/>
				</g>
			</g>
		</g>
		<g id="Grupo_137432" transform="translate(667.99 2093.72)">
			<g id="Grupo_137426-2" transform="translate(0 0)">
				<g id="Grupo_137410-2" transform="translate(81.12 10.927)">
					<path id="Trazado_151837" class="st3" d="M83.1,7.8c19.5,3.5,45.2,9.3,46.6,18.7c0.4,2.8-8.2,17.4-11.4,19.8
						s-12.4,8.7-18.8,8.4c-4.9-0.2-15.3,3.8-19.3,2.4c-3.1-1-9.4,11.3-43.9,13.8c-22.4,1.8-10.2-7-22.7-11.2
						c-4.1-1.4-1.2-20.2-4.2-22C7,36.2,22.7,14.3,24.9,12.4c1.9-1.6,8-2.8,11.4-3.6c9.8-2.1,19.8-3,29.8-2.7
						C71.8,6.3,77.4,6.9,83.1,7.8z"/>
				</g>
				<g id="Grupo_137411-2">
					<path id="Trazado_151838-2" class="st4" d="M87.6,290.1h-3.2v-9.7c-1.4-28.9-13.9-40.9-21.3-45.6c-8.8-5.6-11.1-6.1-18-7.5
						c-1.9-0.4-4.3-0.9-7.2-1.6c-1.3-0.3-2.6-0.6-3.9-0.9c-5.6-1.3-11.3-2.6-16.6-5.1c-7.7-3.7-13-9.6-14.6-16.2
						c-1.7-6.8,1.2-13.9,3.7-20.2c0.4-0.9,0.7-1.8,1.1-2.7c0.8-2.2,0.6-4.6-0.7-6.6c-0.4-0.5-0.8-1-1.2-1.5
						c-0.7-0.8-1.3-1.6-1.8-2.5c-1.3-2.4-1.4-5.4-0.1-7.9c0.7-1.3,1.7-2.4,3-3.3c-0.9-0.7-1.6-1.5-2.1-2.5c-1.6-2.9-1.3-5.8,0.6-7.4
						c3.1-2.6,5.8-5.1,6.6-8.3c0.3-1,0.3-2.1,0-3.1c-3-2-6.4-4.4-8.8-7.6c-2.9-3.9-3.9-8.7-2.4-12.6c1.5-3.8,4.9-6.2,7.6-8.1
						c2.3-1.6,4.6-3.1,6.9-4.5c6.3-4,12.3-7.8,16.8-13.5c3.6-4.5,5.5-9.9,7.6-15.6c0.8-2.3,1.7-4.7,2.7-7
						C47.1,57.2,55,47.4,62.6,37.9c8.5-10.7,24.5-20.7,29.2-23.5c24.1-14.5,43.6-15,64.8-14.1c24.4,1,47.9,8.8,66.1,22
						c48.1,35.1,58.6,102.5,23.5,150.6c-4.7,6.4-10,12.2-16,17.4c-9.1,7.8-17.6,16.2-25.4,25.3c-15.8,18-19.4,45.5-8.7,67l-2.9,1.4
						c-11.2-22.6-7.5-51.6,9.2-70.5c7.9-9.2,16.5-17.7,25.7-25.6c43.4-38.1,47.7-104.1,9.6-147.5c-5-5.8-10.7-10.9-16.9-15.4
						C203.1,12,180.2,4.4,156.4,3.5c-25.1-1-41.7,0.8-63,13.7c-4.6,2.8-20.1,12.5-28.3,22.8c-7.5,9.3-15.2,19-19.9,30.1
						c-0.9,2.2-1.8,4.6-2.6,6.9c-2.1,5.7-4.2,11.6-8.1,16.5c-4.8,6.1-11.3,10.2-17.6,14.2c-2.2,1.4-4.6,2.9-6.8,4.4
						c-2.9,2-5.4,4-6.5,6.6c-1.3,3.3,0.2,7.1,2,9.5c2.2,2.9,5.4,5.1,8.5,7.2c0.3,0.2,0.5,0.5,0.7,0.9c0.6,1.7,0.6,3.6,0.2,5.3
						c-1.1,4.5-4.9,7.6-7.7,10c-0.8,0.7-0.5,2.3,0.2,3.4c0.7,1.3,2,2.2,3.5,2.4c0.9,0.1,1.5,0.9,1.4,1.8c-0.1,0.7-0.7,1.3-1.4,1.4
						c-1.9,0.4-3.5,1.5-4.5,3.1c-0.8,1.5-0.7,3.3,0.1,4.9c0.4,0.7,0.9,1.3,1.4,1.9c0.5,0.6,1,1.2,1.4,1.8c1.8,2.8,2.2,6.4,1,9.5
						c-0.3,0.9-0.7,1.8-1.1,2.7c-2.4,6.1-5,12.4-3.5,18.2c1.4,5.6,6.1,10.8,12.9,14c5,2.4,10.5,3.7,15.9,4.9c1.3,0.3,2.7,0.6,4,0.9
						c2.9,0.7,5.1,1.2,7.1,1.6c7.1,1.5,9.7,2.1,19,8c8.5,5.3,14.7,13.8,18.6,25.3c2.4,7.4,3.8,15.1,4.2,22.9c0,0,0,0.1,0,0.1
						L87.6,290.1z"/>
				</g>
				<g id="Grupo_137412-2" transform="translate(52.073 98.546)">
					<path id="Trazado_151839-2" class="st4" d="M26.5,20.7c-3.7,0-7.4-0.8-10.8-2.3c-7-3.3-12.5-9-15.6-16.1
						C-0.2,1.4,0.2,0.5,1,0.2c0.8-0.3,1.7,0,2.1,0.8C5.8,7.3,10.8,12.5,17,15.4c5.9,2.6,12.7,2.7,18.7,0.2c0.8-0.3,1.8,0,2.1,0.9
						c0.3,0.8,0,1.8-0.9,2.1C33.7,20,30.1,20.7,26.5,20.7z"/>
				</g>
				<g id="Grupo_137421-2" transform="translate(93.783 19.573)">
					<g id="Grupo_137416-2">
						<path id="Trazado_151842-2" class="st2" d="M143.8,82.2c-1.2-1.7-2.6-3.3-4.2-4.6c4.4-3.7,6.6-9.4,5.8-15.1
							c-1-6-4.6-11.2-9.9-14.2c-4.1-2.4-8.8-3.4-13.6-3.1c2.1-3.6,2.9-7.8,2.2-11.9c-0.9-5.1-3.5-9.8-7.3-13.4
							c-8.2-7.3-19.1-10.8-30-9.5c-5.5,0.8-10.6,3.5-14.3,7.6c-0.5-0.2-1-0.3-1.6-0.4c0-2.9-0.9-5.8-2.7-8.2c-2-2.6-4.6-4.7-7.6-6.2
							C56,0.8,50.7-0.3,45.5,0.1C40.3,0.6,35.4,3,32,7c-2.9,3.6-4.2,8.2-3.4,12.8c-4.3-2.5-9.4-3.1-14.2-1.9
							C9,19.4,4.6,23.4,2.8,28.7C1,34,2.2,39.9,5.8,44.2c0.2,0.3,0.5,0.6,0.8,0.9C2,48.6-0.5,54.3,0.1,60c0.9,6.3,5,11.6,10.8,14.1
							c0.2,0.1,0.4,0.2,0.6,0.2c2.6,1,5.5,1.1,8.1,0.2c-0.9,4.3,0.2,8.7,2.8,12.1c2.2,2.8,5.1,4.9,8.5,6.1c1.5,0.6,3.1,0.9,4.8,1.1
							c3.2,0.4,6.5-0.1,9.4-1.5c1.2-0.6,2.2-1.3,3.1-2.2c0.1,3.5,1.2,7,3.2,9.9c2.1,3,5,5.2,8.4,6.5c1.3,0.5,2.7,0.8,4.1,0.9
							c0.1,0.1,0.1,0.2,0.2,0.2c7.2,5.9,11.7,14.4,12.6,23.7l0,0.4c0,1.6,0.4,3.1,1.2,4.5c0.7,1,1.7,1.7,2.8,2.1
							c1.2,0.5,2.6,0.5,3.8,0.1c1.9-0.7,3.5-2.1,4.4-3.8c0.3-0.5,0.6-0.9,0.8-1.4c0.4-0.7,0.8-1.3,1.2-2c2.1,1.9,4.6,3.4,7.3,4.4
							c0.3,0.1,0.5,0.2,0.8,0.3c3.3,1.2,6.9,1.4,10.3,0.8c3.9-0.8,7.3-3.1,9.5-6.4c2.1-3.2,2.9-7.1,2.1-10.8c0.1,0,0.1,0,0.2,0
							c3.9-0.9,6.9-4.1,7.6-8c3.3,0.6,6.6,0,9.5-1.6c2.8-1.6,5-4,6.5-6.8C148.4,96.3,147.9,88.3,143.8,82.2z M86.9,133.2
							c-0.7,1.3-1.8,2.3-3.1,2.8c-1.4,0.4-2.8-0.1-3.7-1.2c-0.5-1-0.8-2.2-0.8-3.3l0-0.4c-0.9-9.1-5.1-17.6-11.8-23.9
							c2.7-0.4,5.2-1.5,7.3-3.3c0,1.3,0.2,2.5,0.6,3.8c1.3,3.8,4,7,7.5,9.1c0.9,0.6,1.9,1,3,1.4c0.3,0.1,0.6,0.2,0.9,0.3
							c-0.8,3.8,0.2,7.8,2.6,10.8c-0.6,0.8-1.2,1.7-1.7,2.6C87.4,132.4,87.2,132.8,86.9,133.2L86.9,133.2z M142.7,101.7
							c-1.3,2.4-3.2,4.5-5.6,5.9c-2.4,1.4-5.2,1.8-7.9,1.3c-0.1,0-0.1,0-0.2,0c-0.2-3-1.5-5.8-3.6-7.9c2.2-2.4,3.1-5.7,2.5-8.8
							c-0.2-0.7-0.8-1.1-1.5-1c-0.6,0.1-1.1,0.7-1,1.4c0,0,0,0,0,0.1c0.7,3.2-0.8,6.4-3.5,8.1c-2.9,1.6-6.5,1.3-9.1-0.7
							c-0.5-0.4-1.3-0.4-1.8,0.2c-0.4,0.5-0.3,1.3,0.2,1.7c0,0,0,0,0,0c0.9,0.7,1.8,1.2,2.9,1.6c3,1.1,6.3,0.9,9.1-0.7
							c0.1-0.1,0.2-0.1,0.3-0.2c2.2,2.1,3.3,5.2,2.9,8.2c-0.6,3-2.8,5.4-5.8,6.1c-3,0.7-6.1-0.6-7.8-3.2c-0.4-0.6-1.1-0.8-1.7-0.5
							c-0.6,0.3-0.8,1-0.5,1.6c0,0,0,0,0,0.1c1.2,1.9,2.9,3.3,5,4c0.9,0.3,1.9,0.5,2.9,0.6c0.7,3.2,0,6.5-1.8,9.3
							c-1.9,2.8-4.7,4.7-7.9,5.4c-3,0.6-6.1,0.3-9-0.7c-3.3-1-6.2-2.9-8.5-5.6c-2-2.5-2.8-5.7-2.2-8.9c2,0.3,4,0.1,5.9-0.6
							c4.4-1.6,7.1-6.1,6-10.3c-0.2-0.7-0.8-1.1-1.5-0.9c-0.6,0.1-1.1,0.7-0.9,1.4c0,0,0,0,0,0.1c0.7,2.9-1.3,6.3-4.5,7.5
							c-3,1.1-6.7,0.6-10-1.4c-3-1.7-5.2-4.4-6.3-7.7c-1-3.1-0.5-6.5,1.3-9.2c0.4-0.5,0.3-1.3-0.3-1.7c0,0,0,0,0,0
							c-0.6-0.4-1.3-0.3-1.8,0.2c-0.5,0.7-1,1.5-1.3,2.3c0,0.1-0.1,0.1-0.1,0.2c-2.1,3.9-6.3,6.3-10.7,6.1
							c-4.6-0.2-8.8-2.6-11.4-6.3c-2.5-3.8-3.4-8.4-2.4-12.8c0-0.2,0-0.4,0-0.5c0-0.1,0.1-0.1,0.1-0.2c0.2-0.7-0.3-1.3-0.9-1.5
							c-0.7-0.2-1.3,0.2-1.5,0.8c0,0,0,0,0,0c-0.7,2.5-2.5,4.6-4.9,5.7c-2.5,1.2-5.3,1.6-8,1.2c-4.5-0.4-8.6-2.6-11.5-6.2
							c-2.7-3.4-3.4-8-1.8-12c0,0,0-0.1,0-0.1c0.8,0.5,1.7,1,2.6,1.3l0,0c2.9,1,6,1.1,9,0.5c0.6-0.1,1.1-0.7,1-1.4c0,0,0,0,0-0.1
							c-0.2-0.7-0.8-1.1-1.5-1c-2.5,0.6-5.2,0.4-7.6-0.4c-2.3-0.8-4.3-2.5-5.2-4.8c-0.9-2.1-0.3-4.6,1.4-6.2
							c0.5-0.4,0.6-1.2,0.1-1.7c0,0,0,0,0,0c-0.5-0.5-1.2-0.6-1.8-0.1c-2.5,2.2-3.3,5.7-2,8.8c0.5,1.2,1.1,2.2,2,3.1
							c-0.3,0-0.5,0.1-0.8,0.3c-2.2,1.8-5.7,1.3-8,0.3c-5-2.1-8.5-6.7-9.2-12c-0.5-5.1,1.8-10.1,6-13c1.4,1,2.9,1.8,4.4,2.4
							c2.6,1,5.4,1.2,8.1,0.8c0.7-0.1,1.1-0.7,1-1.3c0,0,0,0,0-0.1c-0.1-0.7-0.8-1.1-1.5-1c-4.8,0.6-9.7-1.2-12.9-4.9
							C4.7,39,3.7,34,5.2,29.5c1.6-4.5,5.3-8,10-9.2C20,19,25.1,20,29,23c0.5,0.4,1.3,0.3,1.8-0.2c0.1-0.2,0.2-0.4,0.3-0.6
							c0.4-0.3,0.5-0.8,0.4-1.2c-1.3-4.3-0.3-9,2.6-12.4c3-3.5,7.3-5.6,11.8-6c4.7-0.4,9.5,0.6,13.6,2.8c2.6,1.3,4.9,3.1,6.7,5.4
							c1.5,1.9,2.2,4.2,2.2,6.6c-0.8,0-1.6,0.1-2.4,0.3c-3.6,0.9-6.6,3.5-7.9,6.9c-0.2,0.6,0.1,1.4,0.8,1.6c0,0,0,0,0,0h0
							c0.6,0.2,1.4-0.1,1.6-0.7c1.1-2.7,3.4-4.8,6.2-5.4c2.9-0.6,6,0.1,8.3,2c2.2,1.9,3.4,4.8,3.2,7.7c-0.1,0.7,0.4,1.3,1.1,1.4
							c0.7,0.1,1.3-0.4,1.4-1c0,0,0,0,0,0c0.4-4.5-1.8-8.8-5.7-11c3.3-3.4,7.7-5.6,12.3-6.2c10.1-1.2,20.2,2,27.8,8.8
							c3.4,3.2,5.7,7.4,6.6,12c0.7,4.3-0.4,8.7-3.1,12.1l-0.1,0c-3.8-3.7-9.5-4.8-14.5-2.8c-0.6,0.3-0.9,0.9-0.6,1.5c0,0,0,0,0,0.1
							c0.3,0.6,1,0.9,1.7,0.6c4.1-1.6,8.8-0.6,11.9,2.5c2.9,3.2,3.5,7.9,1.4,11.7c-0.3,0.6-0.1,1.3,0.4,1.7c0,0,0,0,0,0
							c0.1,0,0.1,0.1,0.2,0.1c0.6,0.2,1.2,0,1.5-0.5c2.3-4,2.1-8.9-0.3-12.7c4.8-0.8,9.8,0.1,14.1,2.5c4.6,2.6,7.8,7.2,8.6,12.4
							c0.7,5.1-1.4,10.2-5.4,13.3c-3.8-2.4-8.3-3.7-12.9-3.5c-0.7,0-1.2,0.6-1.2,1.2c0,0,0,0,0,0c0.1,0.7,0.7,1.2,1.4,1.2
							c6.7-0.2,13.1,2.9,16.9,8.4C145.3,88.9,145.7,95.9,142.7,101.7L142.7,101.7z"/>
					</g>
					<g id="Grupo_137417-2" transform="translate(44.203 36.897)">
						<path id="Trazado_151843-2" class="st2" d="M17.5,7.7c1.2,2.9,0.6,6.2-1.6,8.5c-0.5,0.5-0.4,1.2,0,1.7c0,0,0,0,0,0
							c0.1,0.1,0.3,0.2,0.4,0.3c0.5,0.2,1,0.1,1.3-0.3c2.8-3,3.6-7.3,2.1-11.1C18.2,3,14.5,0.4,10.3,0C6.2-0.3,2.2,1.8,0.1,5.4
							C-0.2,6,0.1,6.7,0.7,7c0,0,0,0,0,0C1.3,7.4,2,7.2,2.4,6.6C4,3.8,7,2.3,10.2,2.5C13.4,2.7,16.2,4.7,17.5,7.7z"/>
					</g>
					<g id="Grupo_137418-2" transform="translate(94.147 72.977)">
						<path id="Trazado_151844-2" class="st2" d="M8.2,0C7.5-0.1,6.9,0.3,6.7,0.9c0,0,0,0,0,0C6.6,1.6,7,2.3,7.7,2.4
							c4.2,1,7.6,4.1,9,8.2c1.2,4,0,8.3-3.1,11.2c-3.3,2.7-7.8,3.3-11.7,1.5c-0.6-0.3-1.4-0.1-1.7,0.5c-0.3,0.6,0,1.3,0.6,1.6
							c0,0,0,0,0,0c0.4,0.2,0.8,0.4,1.2,0.5c4.5,1.6,9.6,0.7,13.3-2.3c3.8-3.4,5.3-8.7,3.8-13.6C17.4,5,13.3,1.2,8.2,0z"/>
					</g>
					<g id="Grupo_137419-2" transform="translate(40.725 55.255)">
						<path id="Trazado_151845-2" class="st2" d="M53.3,30.3c-3,1.3-6.5,1.2-9.5-0.3c-2.9-1.5-5-4.3-5.6-7.6c-0.4-2.8,0.3-5.6,2-7.8
							c1.3,1.2,2.8,2.1,4.4,2.7c0.9,0.3,1.9,0.6,2.9,0.7c3.6,0.4,8-1.2,9.2-4.9c0.2-0.7-0.2-1.4-0.9-1.6c-0.6-0.2-1.3,0.2-1.5,0.8
							c-0.8,2.4-4,3.6-6.6,3.3c-3.2-0.4-6-2.2-7.7-5c-1.5-2.7-1.7-6-0.3-8.8c0.3-0.6,0-1.3-0.6-1.6c0,0,0,0,0,0
							c-0.6-0.3-1.4-0.1-1.7,0.5c-1.7,3.5-1.6,7.7,0.4,11.1c0.2,0.3,0.4,0.7,0.6,1c-1.9,2.3-3,5.1-3,8.1c-3.3,2.6-8,2.9-11.6,0.6
							c-3.6-2.4-5.2-7-3.7-11.1c0.2-0.7-0.1-1.4-0.8-1.6c-0.6-0.2-1.3,0.1-1.6,0.7c-0.6,1.6-0.8,3.3-0.7,4.9
							c-1.5,1.7-3.5,2.8-5.7,3.2c-2.3,0.4-4.6,0-6.6-1.1c-1.1-0.5-1.9-1.4-2.4-2.5c-0.2-0.7-0.9-1-1.5-0.9c-0.6,0.1-1,0.8-0.9,1.4
							c0,0,0,0,0,0.1c0.6,1.8,1.9,3.2,3.6,4c2.5,1.4,5.5,1.8,8.3,1.4c2.2-0.4,4.2-1.3,5.9-2.7c0.9,2.6,2.5,4.7,4.8,6.2
							c0.7,0.5,1.6,0.9,2.4,1.2c3.6,1.3,7.6,0.9,10.9-1c0.9,3.6,3.4,6.7,6.7,8.5c0.5,0.3,1.1,0.5,1.6,0.7c3.3,1.2,6.9,1.1,10.1-0.3
							c0.6-0.3,0.9-1,0.6-1.6c0,0,0,0,0-0.1C54.7,30.3,53.9,30,53.3,30.3z"/>
					</g>
					<g id="Grupo_137420-2" transform="translate(76.602 39.246)">
						<path id="Trazado_151846-2" class="st2" d="M0.3,4C0.7,4.6,1.5,4.7,2,4.3c4.2-2.7,9.7-2.4,13.6,0.8c3.6,3.3,4.5,8.7,2.1,13.1
							c-0.3,0.6-0.2,1.3,0.4,1.7c0,0,0,0,0,0c0.1,0,0.2,0.1,0.2,0.1c0.6,0.2,1.2,0,1.5-0.5c3.1-5.3,2-12-2.6-16.1
							c-4.7-4.1-11.6-4.5-16.8-1C0,2.7-0.2,3.5,0.3,4C0.2,4,0.2,4,0.3,4z"/>
					</g>
				</g>
				<g id="Grupo_137422-2" transform="translate(28.293 18.629)">
					<path id="Trazado_151847-2" class="st4" d="M1.9,56.4L0,55.8c0.2-0.8,0.5-1.6,0.8-2.3l1.9,0.7C2.4,54.9,2.2,55.7,1.9,56.4z
						 M3.5,51.9l-1.9-0.7c0.3-0.8,0.6-1.5,0.9-2.3l1.9,0.7C4.1,50.4,3.8,51.1,3.5,51.9L3.5,51.9z M5.3,47.4l-1.9-0.8
						c0.3-0.7,0.6-1.5,1-2.2l1.8,0.8C5.9,45.9,5.6,46.7,5.3,47.4z M7.2,43l-1.8-0.9c0.4-0.7,0.7-1.5,1.1-2.2l1.8,0.9
						C7.9,41.6,7.6,42.3,7.2,43z M9.4,38.8l-1.8-1c0.4-0.7,0.8-1.4,1.2-2.1l1.8,1C10.2,37.3,9.8,38.1,9.4,38.8L9.4,38.8z M11.8,34.6
						l-1.7-1c0.4-0.7,0.8-1.4,1.3-2.1l1.7,1.1C12.6,33.2,12.2,33.9,11.8,34.6L11.8,34.6z M14.4,30.5l-1.7-1.1c0.4-0.7,0.9-1.4,1.4-2
						l1.7,1.2C15.3,29.2,14.8,29.8,14.4,30.5L14.4,30.5z M17.1,26.6l-1.6-1.2c0.5-0.7,1-1.3,1.5-2l1.6,1.2
						C18.1,25.3,17.6,25.9,17.1,26.6z M20,22.8l-1.6-1.3c0.5-0.6,1-1.3,1.6-1.9l1.5,1.3C21.1,21.5,20.5,22.1,20,22.8L20,22.8z
						 M23.1,19.1l-1.5-1.3c0.5-0.6,1.1-1.2,1.6-1.8l1.5,1.4C24.2,17.9,23.7,18.5,23.1,19.1L23.1,19.1z M26.4,15.6l-1.5-1.4
						c0.6-0.6,1.1-1.2,1.7-1.7l1.4,1.4C27.5,14.4,26.9,15,26.4,15.6L26.4,15.6z M29.8,12.2l-1.4-1.5c0.6-0.6,1.2-1.1,1.8-1.7
						l1.4,1.5C31,11.1,30.4,11.6,29.8,12.2L29.8,12.2z M33.4,9l-1.3-1.5c0.6-0.5,1.3-1.1,1.9-1.6l1.3,1.6C34.6,7.9,34,8.4,33.4,9
						L33.4,9z M37.1,5.9l-1.2-1.6c0.6-0.5,1.3-1,1.9-1.5L39,4.4C38.4,4.9,37.7,5.4,37.1,5.9z M41,3l-1.2-1.6c0.7-0.5,1.3-0.9,2-1.4
						l1.1,1.7C42.3,2.1,41.6,2.6,41,3L41,3z"/>
				</g>
				<g id="Grupo_137423-2" transform="translate(178.012 170.602)">
					<path id="Trazado_151848-2" class="st4" d="M0.7,89.1c-0.1-0.8-0.3-1.6-0.4-2.5l2-0.3c0.1,0.8,0.2,1.6,0.4,2.3L0.7,89.1z
						 M0.1,84.2C0.1,83.4,0,82.5,0,81.7l2,0c0,0.8,0,1.6,0.1,2.4L0.1,84.2z M2,79.3l-2-0.1c0-0.8,0.1-1.6,0.1-2.5l2,0.2
						C2.1,77.7,2.1,78.5,2,79.3L2,79.3z M2.4,74.6l-2-0.3c0.1-0.8,0.2-1.6,0.4-2.4l2,0.3C2.6,73,2.5,73.8,2.4,74.6L2.4,74.6z
						 M3.2,69.9l-2-0.4c0.2-0.8,0.4-1.6,0.6-2.4l2,0.5C3.6,68.3,3.4,69.1,3.2,69.9L3.2,69.9z M4.5,65.3l-1.9-0.6
						c0.2-0.8,0.5-1.6,0.8-2.3L5.2,63C4.9,63.7,4.7,64.5,4.5,65.3L4.5,65.3z M6,60.8L4.1,60c0.3-0.8,0.6-1.5,0.9-2.3l1.9,0.8
						C6.6,59.3,6.3,60,6,60.8L6,60.8z M7.9,56.4l-1.8-0.9c0.4-0.7,0.7-1.5,1.1-2.2L9,54.2C8.6,54.9,8.3,55.7,7.9,56.4L7.9,56.4z
						 M10.2,52.1l-1.8-1c0.4-0.7,0.8-1.4,1.2-2.1l1.7,1.1C11,50.8,10.5,51.4,10.2,52.1L10.2,52.1z M12.6,48l-1.7-1.1
						c0.4-0.7,0.9-1.4,1.4-2L14,46C13.5,46.7,13.1,47.4,12.6,48L12.6,48z M15.4,44.1l-1.6-1.2c0.5-0.6,1-1.3,1.5-2l1.6,1.2
						C16.3,42.8,15.8,43.5,15.4,44.1L15.4,44.1z M18.3,40.3L16.7,39c0.5-0.6,1-1.3,1.6-1.9l1.5,1.3C19.3,39,18.8,39.6,18.3,40.3
						L18.3,40.3z M21.4,36.6l-1.5-1.3c0.5-0.6,1.1-1.2,1.6-1.8l1.5,1.4C22.4,35.4,21.9,36,21.4,36.6L21.4,36.6z M24.6,33l-1.5-1.4
						c0.6-0.6,1.1-1.2,1.7-1.8l1.5,1.4C25.7,31.8,25.2,32.4,24.6,33L24.6,33z M28,29.5l-1.4-1.4c0.6-0.6,1.1-1.1,1.7-1.7l1.4,1.4
						C29.1,28.4,28.5,29,28,29.5L28,29.5z M31.4,26.2L30,24.7l0.4-0.4c0.4-0.4,0.9-0.8,1.3-1.3l1.4,1.5c-0.4,0.4-0.9,0.8-1.3,1.3
						L31.4,26.2z M34.9,22.8l-1.4-1.5c0.6-0.6,1.2-1.1,1.8-1.6l1.4,1.5C36.1,21.7,35.5,22.3,34.9,22.8L34.9,22.8z M38.5,19.6
						l-1.4-1.5c0.6-0.5,1.2-1.1,1.8-1.6l1.4,1.5C39.7,18.5,39.1,19,38.5,19.6L38.5,19.6z M42.1,16.3l-1.4-1.5l1.8-1.6l1.4,1.5
						L42.1,16.3z M45.7,13.1l-1.4-1.5c0.6-0.5,1.2-1.1,1.8-1.6l1.4,1.5C46.9,12,46.3,12.5,45.7,13.1L45.7,13.1z M49.3,9.8l-1.4-1.5
						c0.6-0.5,1.2-1.1,1.8-1.6l1.4,1.5C50.5,8.7,49.9,9.3,49.3,9.8L49.3,9.8z M52.9,6.5L51.5,5c0.6-0.6,1.2-1.1,1.8-1.7l1.4,1.5
						C54.1,5.4,53.5,6,52.9,6.5L52.9,6.5z M56.4,3.1L55,1.7c0.6-0.6,1.1-1.1,1.7-1.7l1.4,1.4C57.5,2,57,2.6,56.4,3.1L56.4,3.1z"/>
				</g>
				<g id="Grupo_137424-2" transform="translate(40.446 231.831)">
					<path id="Trazado_151849-2" class="st4" d="M35.3,38.7c-0.2-0.8-0.4-1.6-0.6-2.3l2-0.5c0.2,0.8,0.4,1.6,0.6,2.4L35.3,38.7z
						 M34.1,34c-0.2-0.8-0.4-1.6-0.7-2.3l1.9-0.6c0.2,0.8,0.4,1.5,0.7,2.4L34.1,34z M32.7,29.4c-0.3-0.8-0.5-1.5-0.8-2.3l1.9-0.7
						c0.3,0.7,0.6,1.5,0.8,2.3L32.7,29.4z M31.1,25c-0.3-0.7-0.6-1.5-1-2.2l1.8-0.9c0.4,0.7,0.7,1.5,1,2.3L31.1,25z M29,20.7
						c-0.4-0.7-0.8-1.4-1.2-2l1.7-1.1c0.4,0.7,0.9,1.4,1.3,2.1L29,20.7z M26.4,16.8c-0.5-0.6-1-1.2-1.5-1.8l1.5-1.3
						c0.5,0.6,1.1,1.3,1.6,1.9L26.4,16.8z M23.4,13.2c-0.6-0.5-1.1-1.1-1.7-1.6l1.3-1.6c0.7,0.5,1.3,1.1,1.9,1.7L23.4,13.2z
						 M19.7,10.3c-0.6-0.4-1.3-0.9-2-1.3l1-1.7c0.7,0.4,1.4,0.9,2.1,1.4L19.7,10.3z M15.7,7.8c-0.7-0.4-1.4-0.7-2.1-1.1l0.8-1.8
						c0.8,0.4,1.5,0.7,2.2,1.1L15.7,7.8z M11.4,5.8c-0.7-0.3-1.5-0.6-2.2-0.9L9.9,3c0.8,0.3,1.6,0.6,2.3,0.9L11.4,5.8z M6.9,4.1
						C6.1,3.9,5.4,3.6,4.6,3.4l0.6-1.9C6,1.7,6.8,1.9,7.6,2.2L6.9,4.1z M2.3,2.6C1.5,2.4,0.8,2.2,0,1.9L0.6,0
						c0.8,0.2,1.5,0.5,2.3,0.7L2.3,2.6z"/>
				</g>
			</g>
		</g>
		<g id="Grupo_137434" transform="translate(970.767 2093.72)">
			<g id="Grupo_137426-3" transform="translate(0 0)">
				<g id="Grupo_137410-3" transform="translate(72.11 3.31)">
					<path id="Trazado_151837-2" class="st3" d="M94.8,78.9c22.2,8.9,38.3,31.2,40,55c0.5,7.2-0.3,14.7-4,21S120.2,165.7,113,165
						c-5.6-0.5-10.5-4-15-7.4l-53.4-39.5c-4.7-3.4-9.4-7-12.7-11.7c-2.7-3.9-5.7-11.3-3.2-16c2.2-4,9.1-7.1,13-9.1
						c10.5-5.2,22.2-7.6,33.9-6.9C82.1,74.9,88.7,76.4,94.8,78.9z"/>
				</g>
				<g id="Grupo_137411-3">
					<path id="Trazado_151838-3" class="st4" d="M87.6,290.1h-3.2v-9.7c-1.4-28.9-13.9-40.9-21.3-45.6c-8.8-5.6-11.1-6.1-18-7.5
						c-1.9-0.4-4.3-0.9-7.2-1.6c-1.3-0.3-2.6-0.6-3.9-0.9c-5.6-1.3-11.3-2.6-16.6-5.1c-7.7-3.7-13-9.6-14.6-16.2
						c-1.7-6.8,1.2-13.9,3.7-20.2c0.4-0.9,0.7-1.8,1.1-2.7c0.8-2.2,0.6-4.6-0.7-6.6c-0.4-0.5-0.8-1-1.2-1.5
						c-0.7-0.8-1.3-1.6-1.8-2.5c-1.3-2.4-1.4-5.4-0.1-7.9c0.7-1.3,1.7-2.4,3-3.3c-0.9-0.7-1.6-1.5-2.1-2.5c-1.6-2.9-1.3-5.8,0.6-7.4
						c3.1-2.6,5.8-5.1,6.6-8.3c0.3-1,0.3-2.1,0-3.1c-3-2-6.4-4.4-8.8-7.6c-2.9-3.9-3.9-8.7-2.4-12.6c1.5-3.8,4.9-6.2,7.6-8.1
						c2.3-1.6,4.6-3.1,6.9-4.5c6.3-4,12.3-7.8,16.8-13.5c3.6-4.5,5.5-9.9,7.6-15.6c0.8-2.3,1.7-4.7,2.7-7
						C47.1,57.2,55,47.4,62.6,37.9c8.5-10.7,24.5-20.7,29.2-23.5c24.1-14.5,43.6-15,64.8-14.1c24.4,1,47.9,8.8,66.1,22
						c48.1,35.1,58.6,102.5,23.5,150.6c-4.7,6.4-10,12.2-16,17.4c-9.1,7.8-17.6,16.2-25.4,25.3c-15.8,18-19.4,45.5-8.7,67l-2.9,1.4
						c-11.2-22.6-7.5-51.6,9.2-70.5c7.9-9.2,16.5-17.7,25.7-25.6c43.4-38.1,47.7-104.1,9.6-147.5c-5-5.8-10.7-10.9-16.9-15.4
						C203.1,12,180.2,4.4,156.4,3.5c-25.1-1-41.7,0.8-63,13.7c-4.6,2.8-20.1,12.5-28.3,22.8c-7.5,9.3-15.2,19-19.9,30.1
						c-0.9,2.2-1.8,4.6-2.6,6.9c-2.1,5.7-4.2,11.6-8.1,16.5c-4.8,6.1-11.3,10.2-17.6,14.2c-2.2,1.4-4.6,2.9-6.8,4.4
						c-2.9,2-5.4,4-6.5,6.6c-1.3,3.3,0.2,7.1,2,9.5c2.2,2.9,5.4,5.1,8.5,7.2c0.3,0.2,0.5,0.5,0.7,0.9c0.6,1.7,0.6,3.6,0.2,5.3
						c-1.1,4.5-4.9,7.6-7.7,10c-0.8,0.7-0.5,2.3,0.2,3.4c0.7,1.3,2,2.2,3.5,2.4c0.9,0.1,1.5,0.9,1.4,1.8c-0.1,0.7-0.7,1.3-1.4,1.4
						c-1.9,0.4-3.5,1.5-4.5,3.1c-0.8,1.5-0.7,3.3,0.1,4.9c0.4,0.7,0.9,1.3,1.4,1.9c0.5,0.6,1,1.2,1.4,1.8c1.8,2.8,2.2,6.4,1,9.5
						c-0.3,0.9-0.7,1.8-1.1,2.7c-2.4,6.1-5,12.4-3.5,18.2c1.4,5.6,6.1,10.8,12.9,14c5,2.4,10.5,3.7,15.9,4.9c1.3,0.3,2.7,0.6,4,0.9
						c2.9,0.7,5.1,1.2,7.1,1.6c7.1,1.5,9.7,2.1,19,8c8.5,5.3,14.7,13.8,18.6,25.3c2.4,7.4,3.8,15.1,4.2,22.9c0,0,0,0.1,0,0.1
						L87.6,290.1z"/>
				</g>
				<g id="Grupo_137412-3" transform="translate(52.073 98.546)">
					<path id="Trazado_151839-3" class="st4" d="M26.5,20.7c-3.7,0-7.4-0.8-10.8-2.3c-7-3.3-12.5-9-15.6-16.1
						C-0.2,1.4,0.2,0.5,1,0.2c0.8-0.3,1.7,0,2.1,0.8C5.8,7.3,10.8,12.5,17,15.4c5.9,2.6,12.7,2.7,18.7,0.2c0.8-0.3,1.8,0,2.1,0.9
						c0.3,0.8,0,1.8-0.9,2.1C33.7,20,30.1,20.7,26.5,20.7z"/>
				</g>
				<g id="Grupo_137421-3" transform="translate(93.783 19.573)">
					<g id="Grupo_137416-3">
						<path id="Trazado_151842-3" class="st2" d="M143.8,82.2c-1.2-1.7-2.6-3.3-4.2-4.6c4.4-3.7,6.6-9.4,5.8-15.1
							c-1-6-4.6-11.2-9.9-14.2c-4.1-2.4-8.8-3.4-13.6-3.1c2.1-3.6,2.9-7.8,2.2-11.9c-0.9-5.1-3.5-9.8-7.3-13.4
							c-8.2-7.3-19.1-10.8-30-9.5c-5.5,0.8-10.6,3.5-14.3,7.6c-0.5-0.2-1-0.3-1.6-0.4c0-2.9-0.9-5.8-2.7-8.2c-2-2.6-4.6-4.7-7.6-6.2
							C56,0.8,50.7-0.3,45.5,0.1C40.3,0.6,35.4,3,32,7c-2.9,3.6-4.2,8.2-3.4,12.8c-4.3-2.5-9.4-3.1-14.2-1.9
							C9,19.4,4.6,23.4,2.8,28.7C1,34,2.2,39.9,5.8,44.2c0.2,0.3,0.5,0.6,0.8,0.9C2,48.6-0.5,54.3,0.1,60c0.9,6.3,5,11.6,10.8,14.1
							c0.2,0.1,0.4,0.2,0.6,0.2c2.6,1,5.5,1.1,8.1,0.2c-0.9,4.3,0.2,8.7,2.8,12.1c2.2,2.8,5.1,4.9,8.5,6.1c1.5,0.6,3.1,0.9,4.8,1.1
							c3.2,0.4,6.5-0.1,9.4-1.5c1.2-0.6,2.2-1.3,3.1-2.2c0.1,3.5,1.2,7,3.2,9.9c2.1,3,5,5.2,8.4,6.5c1.3,0.5,2.7,0.8,4.1,0.9
							c0.1,0.1,0.1,0.2,0.2,0.2c7.2,5.9,11.7,14.4,12.6,23.7l0,0.4c0,1.6,0.4,3.1,1.2,4.5c0.7,1,1.7,1.7,2.8,2.1
							c1.2,0.5,2.6,0.5,3.8,0.1c1.9-0.7,3.5-2.1,4.4-3.8c0.3-0.5,0.6-0.9,0.8-1.4c0.4-0.7,0.8-1.3,1.2-2c2.1,1.9,4.6,3.4,7.3,4.4
							c0.3,0.1,0.5,0.2,0.8,0.3c3.3,1.2,6.9,1.4,10.3,0.8c3.9-0.8,7.3-3.1,9.5-6.4c2.1-3.2,2.9-7.1,2.1-10.8c0.1,0,0.1,0,0.2,0
							c3.9-0.9,6.9-4.1,7.6-8c3.3,0.6,6.6,0,9.5-1.6c2.8-1.6,5-4,6.5-6.8C148.4,96.3,147.9,88.3,143.8,82.2z M86.9,133.2
							c-0.7,1.3-1.8,2.3-3.1,2.8c-1.4,0.4-2.8-0.1-3.7-1.2c-0.5-1-0.8-2.2-0.8-3.3l0-0.4c-0.9-9.1-5.1-17.6-11.8-23.9
							c2.7-0.4,5.2-1.5,7.3-3.3c0,1.3,0.2,2.5,0.6,3.8c1.3,3.8,4,7,7.5,9.1c0.9,0.6,1.9,1,3,1.4c0.3,0.1,0.6,0.2,0.9,0.3
							c-0.8,3.8,0.2,7.8,2.6,10.8c-0.6,0.8-1.2,1.7-1.7,2.6C87.4,132.4,87.2,132.8,86.9,133.2L86.9,133.2z M142.7,101.7
							c-1.3,2.4-3.2,4.5-5.6,5.9c-2.4,1.4-5.2,1.8-7.9,1.3c-0.1,0-0.1,0-0.2,0c-0.2-3-1.5-5.8-3.6-7.9c2.2-2.4,3.1-5.7,2.5-8.8
							c-0.2-0.7-0.8-1.1-1.5-1c-0.6,0.1-1.1,0.7-1,1.4c0,0,0,0,0,0.1c0.7,3.2-0.8,6.4-3.5,8.1c-2.9,1.6-6.5,1.3-9.1-0.7
							c-0.5-0.4-1.3-0.4-1.8,0.2c-0.4,0.5-0.3,1.3,0.2,1.7c0,0,0,0,0,0c0.9,0.7,1.8,1.2,2.9,1.6c3,1.1,6.3,0.9,9.1-0.7
							c0.1-0.1,0.2-0.1,0.3-0.2c2.2,2.1,3.3,5.2,2.9,8.2c-0.6,3-2.8,5.4-5.8,6.1c-3,0.7-6.1-0.6-7.8-3.2c-0.4-0.6-1.1-0.8-1.7-0.5
							c-0.6,0.3-0.8,1-0.5,1.6c0,0,0,0,0,0.1c1.2,1.9,2.9,3.3,5,4c0.9,0.3,1.9,0.5,2.9,0.6c0.7,3.2,0,6.5-1.8,9.3
							c-1.9,2.8-4.7,4.7-7.9,5.4c-3,0.6-6.1,0.3-9-0.7c-3.3-1-6.2-2.9-8.5-5.6c-2-2.5-2.8-5.7-2.2-8.9c2,0.3,4,0.1,5.9-0.6
							c4.4-1.6,7.1-6.1,6-10.3c-0.2-0.7-0.8-1.1-1.5-0.9c-0.6,0.1-1.1,0.7-0.9,1.4c0,0,0,0,0,0.1c0.7,2.9-1.3,6.3-4.5,7.5
							c-3,1.1-6.7,0.6-10-1.4c-3-1.7-5.2-4.4-6.3-7.7c-1-3.1-0.5-6.5,1.3-9.2c0.4-0.5,0.3-1.3-0.3-1.7c0,0,0,0,0,0
							c-0.6-0.4-1.3-0.3-1.8,0.2c-0.5,0.7-1,1.5-1.3,2.3c0,0.1-0.1,0.1-0.1,0.2c-2.1,3.9-6.3,6.3-10.7,6.1
							c-4.6-0.2-8.8-2.6-11.4-6.3c-2.5-3.8-3.4-8.4-2.4-12.8c0-0.2,0-0.4,0-0.5c0-0.1,0.1-0.1,0.1-0.2c0.2-0.7-0.3-1.3-0.9-1.5
							c-0.7-0.2-1.3,0.2-1.5,0.8c0,0,0,0,0,0c-0.7,2.5-2.5,4.6-4.9,5.7c-2.5,1.2-5.3,1.6-8,1.2c-4.5-0.4-8.6-2.6-11.5-6.2
							c-2.7-3.4-3.4-8-1.8-12c0,0,0-0.1,0-0.1c0.8,0.5,1.7,1,2.6,1.3l0,0c2.9,1,6,1.1,9,0.5c0.6-0.1,1.1-0.7,1-1.4c0,0,0,0,0-0.1
							c-0.2-0.7-0.8-1.1-1.5-1c-2.5,0.6-5.2,0.4-7.6-0.4c-2.3-0.8-4.3-2.5-5.2-4.8c-0.9-2.1-0.3-4.6,1.4-6.2
							c0.5-0.4,0.6-1.2,0.1-1.7c0,0,0,0,0,0c-0.5-0.5-1.2-0.6-1.8-0.1c-2.5,2.2-3.3,5.7-2,8.8c0.5,1.2,1.1,2.2,2,3.1
							c-0.3,0-0.5,0.1-0.8,0.3c-2.2,1.8-5.7,1.3-8,0.3c-5-2.1-8.5-6.7-9.2-12c-0.5-5.1,1.8-10.1,6-13c1.4,1,2.9,1.8,4.4,2.4
							c2.6,1,5.4,1.2,8.1,0.8c0.7-0.1,1.1-0.7,1-1.3c0,0,0,0,0-0.1c-0.1-0.7-0.8-1.1-1.5-1c-4.8,0.6-9.7-1.2-12.9-4.9
							C4.7,39,3.7,34,5.2,29.5c1.6-4.5,5.3-8,10-9.2C20,19,25.1,20,29,23c0.5,0.4,1.3,0.3,1.8-0.2c0.1-0.2,0.2-0.4,0.3-0.6
							c0.4-0.3,0.5-0.8,0.4-1.2c-1.3-4.3-0.3-9,2.6-12.4c3-3.5,7.3-5.6,11.8-6c4.7-0.4,9.5,0.6,13.6,2.8c2.6,1.3,4.9,3.1,6.7,5.4
							c1.5,1.9,2.2,4.2,2.2,6.6c-0.8,0-1.6,0.1-2.4,0.3c-3.6,0.9-6.6,3.5-7.9,6.9c-0.2,0.6,0.1,1.4,0.8,1.6c0,0,0,0,0,0h0
							c0.6,0.2,1.4-0.1,1.6-0.7c1.1-2.7,3.4-4.8,6.2-5.4c2.9-0.6,6,0.1,8.3,2c2.2,1.9,3.4,4.8,3.2,7.7c-0.1,0.7,0.4,1.3,1.1,1.4
							c0.7,0.1,1.3-0.4,1.4-1c0,0,0,0,0,0c0.4-4.5-1.8-8.8-5.7-11c3.3-3.4,7.7-5.6,12.3-6.2c10.1-1.2,20.2,2,27.8,8.8
							c3.4,3.2,5.7,7.4,6.6,12c0.7,4.3-0.4,8.7-3.1,12.1l-0.1,0c-3.8-3.7-9.5-4.8-14.5-2.8c-0.6,0.3-0.9,0.9-0.6,1.5c0,0,0,0,0,0.1
							c0.3,0.6,1,0.9,1.7,0.6c4.1-1.6,8.8-0.6,11.9,2.5c2.9,3.2,3.5,7.9,1.4,11.7c-0.3,0.6-0.1,1.3,0.4,1.7c0,0,0,0,0,0
							c0.1,0,0.1,0.1,0.2,0.1c0.6,0.2,1.2,0,1.5-0.5c2.3-4,2.1-8.9-0.3-12.7c4.8-0.8,9.8,0.1,14.1,2.5c4.6,2.6,7.8,7.2,8.6,12.4
							c0.7,5.1-1.4,10.2-5.4,13.3c-3.8-2.4-8.3-3.7-12.9-3.5c-0.7,0-1.2,0.6-1.2,1.2c0,0,0,0,0,0c0.1,0.7,0.7,1.2,1.4,1.2
							c6.7-0.2,13.1,2.9,16.9,8.4C145.3,88.9,145.7,95.9,142.7,101.7L142.7,101.7z"/>
					</g>
					<g id="Grupo_137417-3" transform="translate(44.203 36.897)">
						<path id="Trazado_151843-3" class="st2" d="M17.5,7.7c1.2,2.9,0.6,6.2-1.6,8.5c-0.5,0.5-0.4,1.2,0,1.7c0,0,0,0,0,0
							c0.1,0.1,0.3,0.2,0.4,0.3c0.5,0.2,1,0.1,1.3-0.3c2.8-3,3.6-7.3,2.1-11.1C18.2,3,14.5,0.4,10.3,0C6.2-0.3,2.2,1.8,0.1,5.4
							C-0.2,6,0.1,6.7,0.7,7c0,0,0,0,0,0C1.3,7.4,2,7.2,2.4,6.6C4,3.8,7,2.3,10.2,2.5C13.4,2.7,16.2,4.7,17.5,7.7z"/>
					</g>
					<g id="Grupo_137418-3" transform="translate(94.147 72.977)">
						<path id="Trazado_151844-3" class="st2" d="M8.2,0C7.5-0.1,6.9,0.3,6.7,0.9c0,0,0,0,0,0C6.6,1.6,7,2.3,7.7,2.4
							c4.2,1,7.6,4.1,9,8.2c1.2,4,0,8.3-3.1,11.2c-3.3,2.7-7.8,3.3-11.7,1.5c-0.6-0.3-1.4-0.1-1.7,0.5c-0.3,0.6,0,1.3,0.6,1.6
							c0,0,0,0,0,0c0.4,0.2,0.8,0.4,1.2,0.5c4.5,1.6,9.6,0.7,13.3-2.3c3.8-3.4,5.3-8.7,3.8-13.6C17.4,5,13.3,1.2,8.2,0z"/>
					</g>
					<g id="Grupo_137419-3" transform="translate(40.725 55.255)">
						<path id="Trazado_151845-3" class="st2" d="M53.3,30.3c-3,1.3-6.5,1.2-9.5-0.3c-2.9-1.5-5-4.3-5.6-7.6c-0.4-2.8,0.3-5.6,2-7.8
							c1.3,1.2,2.8,2.1,4.4,2.7c0.9,0.3,1.9,0.6,2.9,0.7c3.6,0.4,8-1.2,9.2-4.9c0.2-0.7-0.2-1.4-0.9-1.6c-0.6-0.2-1.3,0.2-1.5,0.8
							c-0.8,2.4-4,3.6-6.6,3.3c-3.2-0.4-6-2.2-7.7-5c-1.5-2.7-1.7-6-0.3-8.8c0.3-0.6,0-1.3-0.6-1.6c0,0,0,0,0,0
							c-0.6-0.3-1.4-0.1-1.7,0.5c-1.7,3.5-1.6,7.7,0.4,11.1c0.2,0.3,0.4,0.7,0.6,1c-1.9,2.3-3,5.1-3,8.1c-3.3,2.6-8,2.9-11.6,0.6
							c-3.6-2.4-5.2-7-3.7-11.1c0.2-0.7-0.1-1.4-0.8-1.6c-0.6-0.2-1.3,0.1-1.6,0.7c-0.6,1.6-0.8,3.3-0.7,4.9
							c-1.5,1.7-3.5,2.8-5.8,3.2c-2.3,0.4-4.6,0-6.6-1.1c-1.1-0.5-1.9-1.4-2.4-2.5c-0.2-0.7-0.9-1-1.5-0.9c-0.6,0.1-1,0.8-0.9,1.4
							c0,0,0,0,0,0.1c0.6,1.8,1.9,3.2,3.6,4c2.5,1.4,5.5,1.8,8.3,1.4c2.2-0.4,4.2-1.3,5.9-2.7c0.9,2.6,2.5,4.7,4.8,6.2
							c0.7,0.5,1.6,0.9,2.4,1.2c3.6,1.3,7.6,0.9,10.9-1c0.9,3.6,3.4,6.7,6.7,8.5c0.5,0.3,1.1,0.5,1.6,0.7c3.3,1.2,6.9,1.1,10.1-0.3
							c0.6-0.3,0.9-1,0.6-1.6c0,0,0,0,0-0.1C54.7,30.3,53.9,30,53.3,30.3z"/>
					</g>
					<g id="Grupo_137420-3" transform="translate(76.602 39.246)">
						<path id="Trazado_151846-3" class="st2" d="M0.3,4C0.7,4.6,1.5,4.7,2,4.3c4.2-2.7,9.7-2.4,13.6,0.8c3.6,3.3,4.5,8.7,2.1,13.1
							c-0.3,0.6-0.2,1.3,0.4,1.7c0,0,0,0,0,0c0.1,0,0.2,0.1,0.2,0.1c0.6,0.2,1.2,0,1.5-0.5c3.1-5.3,2-12-2.6-16.1
							c-4.7-4.1-11.6-4.5-16.8-1C0,2.7-0.2,3.5,0.3,4C0.2,4,0.2,4,0.3,4z"/>
					</g>
				</g>
				<g id="Grupo_137422-3" transform="translate(28.293 18.629)">
					<path id="Trazado_151847-3" class="st4" d="M1.9,56.4L0,55.8c0.2-0.8,0.5-1.6,0.8-2.3l1.9,0.7C2.4,54.9,2.2,55.7,1.9,56.4z
						 M3.5,51.9l-1.9-0.7c0.3-0.8,0.6-1.5,0.9-2.3l1.9,0.7C4.1,50.4,3.8,51.1,3.5,51.9L3.5,51.9z M5.3,47.4l-1.9-0.8
						c0.3-0.7,0.6-1.5,1-2.2l1.8,0.8C5.9,45.9,5.6,46.7,5.3,47.4z M7.2,43l-1.8-0.9c0.4-0.7,0.7-1.5,1.1-2.2l1.8,0.9
						C7.9,41.6,7.6,42.3,7.2,43z M9.4,38.8l-1.8-1c0.4-0.7,0.8-1.4,1.2-2.1l1.8,1C10.2,37.3,9.8,38.1,9.4,38.8L9.4,38.8z M11.8,34.6
						l-1.7-1c0.4-0.7,0.8-1.4,1.3-2.1l1.7,1.1C12.6,33.2,12.2,33.9,11.8,34.6L11.8,34.6z M14.4,30.5l-1.7-1.1c0.4-0.7,0.9-1.4,1.4-2
						l1.7,1.2C15.3,29.2,14.8,29.8,14.4,30.5L14.4,30.5z M17.1,26.6l-1.6-1.2c0.5-0.7,1-1.3,1.5-2l1.6,1.2
						C18.1,25.3,17.6,25.9,17.1,26.6z M20,22.8l-1.6-1.3c0.5-0.6,1-1.3,1.6-1.9l1.5,1.3C21.1,21.5,20.5,22.1,20,22.8L20,22.8z
						 M23.1,19.1l-1.5-1.3c0.5-0.6,1.1-1.2,1.6-1.8l1.5,1.4C24.2,17.9,23.7,18.5,23.1,19.1L23.1,19.1z M26.4,15.6l-1.5-1.4
						c0.6-0.6,1.1-1.2,1.7-1.7l1.4,1.4C27.5,14.4,26.9,15,26.4,15.6L26.4,15.6z M29.8,12.2l-1.4-1.5c0.6-0.6,1.2-1.1,1.8-1.7
						l1.4,1.5C31,11.1,30.4,11.6,29.8,12.2L29.8,12.2z M33.4,9l-1.3-1.5c0.6-0.5,1.3-1.1,1.9-1.6l1.3,1.6C34.6,7.9,34,8.4,33.4,9
						L33.4,9z M37.1,5.9l-1.2-1.6c0.6-0.5,1.3-1,1.9-1.5L39,4.4C38.4,4.9,37.7,5.4,37.1,5.9z M41,3l-1.2-1.6c0.7-0.5,1.3-0.9,2-1.4
						l1.1,1.7C42.3,2.1,41.6,2.6,41,3L41,3z"/>
				</g>
				<g id="Grupo_137423-3" transform="translate(178.012 170.602)">
					<path id="Trazado_151848-3" class="st4" d="M0.7,89.1c-0.1-0.8-0.3-1.6-0.4-2.5l2-0.3c0.1,0.8,0.2,1.6,0.4,2.3L0.7,89.1z
						 M0.1,84.2C0.1,83.4,0,82.5,0,81.7l2,0c0,0.8,0,1.6,0.1,2.4L0.1,84.2z M2,79.3l-2-0.1c0-0.8,0.1-1.6,0.1-2.5l2,0.2
						C2.1,77.7,2.1,78.5,2,79.3L2,79.3z M2.4,74.6l-2-0.3c0.1-0.8,0.2-1.6,0.4-2.4l2,0.3C2.6,73,2.5,73.8,2.4,74.6L2.4,74.6z
						 M3.2,69.9l-2-0.4c0.2-0.8,0.4-1.6,0.6-2.4l2,0.5C3.6,68.3,3.4,69.1,3.2,69.9L3.2,69.9z M4.5,65.3l-1.9-0.6
						c0.2-0.8,0.5-1.6,0.8-2.3L5.2,63C4.9,63.7,4.7,64.5,4.5,65.3L4.5,65.3z M6,60.8L4.1,60c0.3-0.8,0.6-1.5,0.9-2.3l1.9,0.8
						C6.6,59.3,6.3,60,6,60.8L6,60.8z M7.9,56.4l-1.8-0.9c0.4-0.7,0.7-1.5,1.1-2.2L9,54.2C8.6,54.9,8.3,55.7,7.9,56.4L7.9,56.4z
						 M10.2,52.1l-1.8-1c0.4-0.7,0.8-1.4,1.2-2.1l1.7,1.1C11,50.8,10.5,51.4,10.2,52.1L10.2,52.1z M12.6,48l-1.7-1.1
						c0.4-0.7,0.9-1.4,1.4-2L14,46C13.5,46.7,13.1,47.4,12.6,48L12.6,48z M15.4,44.1l-1.6-1.2c0.5-0.6,1-1.3,1.5-2l1.6,1.2
						C16.3,42.8,15.8,43.5,15.4,44.1L15.4,44.1z M18.3,40.3L16.7,39c0.5-0.6,1-1.3,1.6-1.9l1.5,1.3C19.3,39,18.8,39.6,18.3,40.3
						L18.3,40.3z M21.4,36.6l-1.5-1.3c0.5-0.6,1.1-1.2,1.6-1.8l1.5,1.4C22.4,35.4,21.9,36,21.4,36.6L21.4,36.6z M24.6,33l-1.5-1.4
						c0.6-0.6,1.1-1.2,1.7-1.8l1.5,1.4C25.7,31.8,25.2,32.4,24.6,33L24.6,33z M28,29.5l-1.4-1.4c0.6-0.6,1.1-1.1,1.7-1.7l1.4,1.4
						C29.1,28.4,28.5,29,28,29.5L28,29.5z M31.4,26.2L30,24.7l0.4-0.4c0.4-0.4,0.9-0.8,1.3-1.3l1.4,1.5c-0.4,0.4-0.9,0.8-1.3,1.3
						L31.4,26.2z M34.9,22.8l-1.4-1.5c0.6-0.6,1.2-1.1,1.8-1.6l1.4,1.5C36.1,21.7,35.5,22.3,34.9,22.8L34.9,22.8z M38.5,19.6
						l-1.4-1.5c0.6-0.5,1.2-1.1,1.8-1.6l1.4,1.5C39.7,18.5,39.1,19,38.5,19.6L38.5,19.6z M42.1,16.3l-1.4-1.5l1.8-1.6l1.4,1.5
						L42.1,16.3z M45.7,13.1l-1.4-1.5c0.6-0.5,1.2-1.1,1.8-1.6l1.4,1.5C46.9,12,46.3,12.5,45.7,13.1L45.7,13.1z M49.3,9.8l-1.4-1.5
						c0.6-0.5,1.2-1.1,1.8-1.6l1.4,1.5C50.5,8.7,49.9,9.3,49.3,9.8L49.3,9.8z M52.9,6.5L51.5,5c0.6-0.6,1.2-1.1,1.8-1.7l1.4,1.5
						C54.1,5.4,53.5,6,52.9,6.5L52.9,6.5z M56.4,3.1L55,1.7c0.6-0.6,1.1-1.1,1.7-1.7l1.4,1.4C57.5,2,57,2.6,56.4,3.1L56.4,3.1z"/>
				</g>
				<g id="Grupo_137424-3" transform="translate(40.446 231.831)">
					<path id="Trazado_151849-3" class="st4" d="M35.3,38.7c-0.2-0.8-0.4-1.6-0.6-2.3l2-0.5c0.2,0.8,0.4,1.6,0.6,2.4L35.3,38.7z
						 M34.1,34c-0.2-0.8-0.4-1.6-0.7-2.3l1.9-0.6c0.2,0.8,0.4,1.5,0.7,2.4L34.1,34z M32.7,29.4c-0.3-0.8-0.5-1.5-0.8-2.3l1.9-0.7
						c0.3,0.7,0.6,1.5,0.8,2.3L32.7,29.4z M31.1,25c-0.3-0.7-0.6-1.5-1-2.2l1.8-0.9c0.4,0.7,0.7,1.5,1,2.3L31.1,25z M29,20.7
						c-0.4-0.7-0.8-1.4-1.2-2l1.7-1.1c0.4,0.7,0.9,1.4,1.3,2.1L29,20.7z M26.4,16.8c-0.5-0.6-1-1.2-1.5-1.8l1.5-1.3
						c0.5,0.6,1.1,1.3,1.6,1.9L26.4,16.8z M23.4,13.2c-0.6-0.5-1.1-1.1-1.7-1.6l1.3-1.6c0.7,0.5,1.3,1.1,1.9,1.7L23.4,13.2z
						 M19.7,10.3c-0.6-0.4-1.3-0.9-2-1.3l1-1.7c0.7,0.4,1.4,0.9,2.1,1.4L19.7,10.3z M15.7,7.8c-0.7-0.4-1.4-0.7-2.1-1.1l0.8-1.8
						c0.8,0.4,1.5,0.7,2.2,1.1L15.7,7.8z M11.4,5.8c-0.7-0.3-1.5-0.6-2.2-0.9L9.9,3c0.8,0.3,1.6,0.6,2.3,0.9L11.4,5.8z M6.9,4.1
						C6.1,3.9,5.4,3.6,4.6,3.4l0.6-1.9C6,1.7,6.8,1.9,7.6,2.2L6.9,4.1z M2.3,2.6C1.5,2.4,0.8,2.2,0,1.9L0.6,0
						c0.8,0.2,1.5,0.5,2.3,0.7L2.3,2.6z"/>
				</g>
			</g>
		</g>
		<circle id="Elipse_5003" class="st5" cx="1290" cy="2019.1" r="17"/>
		<circle id="Elipse_5004" class="st5" cx="287" cy="2454.1" r="17"/>
	</g>
</g>
</svg>
